<svg xmlns="http://www.w3.org/2000/svg" xmlns:xlink="http://www.w3.org/1999/xlink" preserveAspectRatio="xMidYMid" width="30" height="30" viewBox="0 0 30 30">
  <defs>
    <style>

      .cls-3 {
        fill: #02b4ca;
      }

      .cls-4 {
        fill: #ffffff;
      }
    </style>
  </defs>
  <g id="datepickersvg">
    <rect id="rect-1" class="cls-3" width="30" height="30"/>
    <path d="M21.000,22.000 C21.000,22.000 10.000,22.000 10.000,22.000 C9.448,22.000 9.000,21.552 9.000,21.000 C9.000,21.000 9.000,11.000 9.000,11.000 C9.000,10.448 9.448,10.000 10.000,10.000 C10.000,10.000 10.984,10.000 10.984,10.000 C10.984,10.000 10.984,10.953 10.984,10.953 C10.984,11.969 12.531,12.016 12.531,12.016 C14.031,12.016 14.016,10.937 14.016,10.937 C14.016,10.937 14.016,10.000 14.016,10.000 C14.016,10.000 16.984,10.000 16.984,10.000 C16.984,10.000 17.000,10.922 17.000,10.922 C16.969,12.031 18.500,12.016 18.500,12.016 C19.922,11.984 20.000,10.906 20.000,10.906 C20.000,10.906 20.000,10.000 20.000,10.000 C20.000,10.000 21.000,10.000 21.000,10.000 C21.552,10.000 22.000,10.448 22.000,11.000 C22.000,11.000 22.000,21.000 22.000,21.000 C22.000,21.552 21.552,22.000 21.000,22.000 ZM12.000,13.000 C12.000,13.000 10.000,13.000 10.000,13.000 C10.000,13.000 10.000,15.000 10.000,15.000 C10.000,15.000 12.000,15.000 12.000,15.000 C12.000,15.000 12.000,13.000 12.000,13.000 ZM12.000,16.000 C12.000,16.000 10.000,16.000 10.000,16.000 C10.000,16.000 10.000,18.000 10.000,18.000 C10.000,18.000 12.000,18.000 12.000,18.000 C12.000,18.000 12.000,16.000 12.000,16.000 ZM12.000,19.000 C12.000,19.000 10.000,19.000 10.000,19.000 C10.000,19.000 10.000,21.000 10.000,21.000 C10.000,21.000 12.000,21.000 12.000,21.000 C12.000,21.000 12.000,19.000 12.000,19.000 ZM15.000,13.000 C15.000,13.000 13.000,13.000 13.000,13.000 C13.000,13.000 13.000,15.000 13.000,15.000 C13.000,15.000 15.000,15.000 15.000,15.000 C15.000,15.000 15.000,13.000 15.000,13.000 ZM15.000,16.000 C15.000,16.000 13.000,16.000 13.000,16.000 C13.000,16.000 13.000,18.000 13.000,18.000 C13.000,18.000 15.000,18.000 15.000,18.000 C15.000,18.000 15.000,16.000 15.000,16.000 ZM15.000,19.000 C15.000,19.000 13.000,19.000 13.000,19.000 C13.000,19.000 13.000,21.000 13.000,21.000 C13.000,21.000 15.000,21.000 15.000,21.000 C15.000,21.000 15.000,19.000 15.000,19.000 ZM18.000,13.000 C18.000,13.000 16.000,13.000 16.000,13.000 C16.000,13.000 16.000,15.000 16.000,15.000 C16.000,15.000 18.000,15.000 18.000,15.000 C18.000,15.000 18.000,13.000 18.000,13.000 ZM18.000,16.000 C18.000,16.000 16.000,16.000 16.000,16.000 C16.000,16.000 16.000,18.000 16.000,18.000 C16.000,18.000 18.000,18.000 18.000,18.000 C18.000,18.000 18.000,16.000 18.000,16.000 ZM18.000,19.000 C18.000,19.000 16.000,19.000 16.000,19.000 C16.000,19.000 16.000,21.000 16.000,21.000 C16.000,21.000 18.000,21.000 18.000,21.000 C18.000,21.000 18.000,19.000 18.000,19.000 ZM21.000,13.000 C21.000,13.000 19.000,13.000 19.000,13.000 C19.000,13.000 19.000,15.000 19.000,15.000 C19.000,15.000 21.000,15.000 21.000,15.000 C21.000,15.000 21.000,13.000 21.000,13.000 ZM21.000,16.000 C21.000,16.000 19.000,16.000 19.000,16.000 C19.000,16.000 19.000,18.000 19.000,18.000 C19.000,18.000 21.000,18.000 21.000,18.000 C21.000,18.000 21.000,16.000 21.000,16.000 ZM21.000,19.000 C21.000,19.000 19.000,19.000 19.000,19.000 C19.000,19.000 19.000,21.000 19.000,21.000 C19.000,21.000 21.000,21.000 21.000,21.000 C21.000,21.000 21.000,19.000 21.000,19.000 ZM18.500,11.000 C18.224,11.000 18.000,10.776 18.000,10.500 C18.000,10.500 18.000,9.500 18.000,9.500 C18.000,9.224 18.224,9.000 18.500,9.000 C18.776,9.000 19.000,9.224 19.000,9.500 C19.000,9.500 19.000,10.500 19.000,10.500 C19.000,10.776 18.776,11.000 18.500,11.000 ZM12.500,11.000 C12.224,11.000 12.000,10.776 12.000,10.500 C12.000,10.500 12.000,9.500 12.000,9.500 C12.000,9.224 12.224,9.000 12.500,9.000 C12.776,9.000 13.000,9.224 13.000,9.500 C13.000,9.500 13.000,10.500 13.000,10.500 C13.000,10.776 12.776,11.000 12.500,11.000 Z" id="path-1" class="cls-4" fill-rule="evenodd"/>
  </g>
</svg>
